<?xml version="1.0" encoding="UTF-8" ?>
<!DOCTYPE svg PUBLIC "-//W3C//DTD SVG 1.1//EN" "http://www.w3.org/Graphics/SVG/1.1/DTD/svg11.dtd">
<svg width="1083pt" height="902pt" viewBox="0 0 1083 902" version="1.1" xmlns="http://www.w3.org/2000/svg">
<g id="#ffffffff">
</g>
<g id="#f8312fff">
<path fill="#f8312f" opacity="1.00" d=" M 476.21 29.15 C 481.93 27.20 488.07 27.21 494.05 27.24 C 538.69 27.26 583.34 27.23 627.99 27.25 C 634.25 27.37 640.93 27.97 646.19 31.73 C 656.05 38.43 662.41 48.93 667.81 59.30 C 673.37 69.45 677.67 80.27 683.88 90.06 C 692.00 102.99 703.33 114.08 717.10 120.84 C 723.68 124.11 731.00 125.48 738.23 126.38 C 747.04 126.99 756.07 126.89 764.62 124.42 C 773.48 121.93 781.86 118.06 790.15 114.09 C 795.68 111.51 801.67 108.94 807.93 109.73 C 819.80 110.51 829.67 121.32 830.32 133.02 C 830.99 142.25 826.22 151.41 818.45 156.37 C 800.20 168.45 781.88 180.43 763.60 192.47 C 755.93 197.65 747.81 202.31 738.97 205.17 C 730.64 208.01 721.80 208.82 713.04 209.00 C 609.69 209.01 506.34 208.99 403.00 209.01 C 393.89 208.83 384.70 208.12 375.93 205.53 C 368.40 203.35 361.37 199.70 354.90 195.32 C 335.10 182.04 315.18 168.95 295.45 155.58 C 284.46 148.18 281.14 131.68 288.72 120.75 C 292.76 115.03 298.97 110.78 306.01 109.93 C 312.32 108.62 318.49 111.17 324.06 113.87 C 334.56 119.01 345.39 123.91 356.99 125.93 C 371.61 127.83 387.17 126.46 400.30 119.31 C 409.57 113.97 418.15 107.23 424.88 98.85 C 439.96 81.26 446.13 57.90 461.39 40.42 C 465.54 35.79 470.33 31.42 476.21 29.15 Z" />
<path fill="#f8312f" opacity="1.00" d=" M 375.89 330.50 C 496.99 330.50 618.09 330.50 739.19 330.50 C 750.08 330.71 761.07 329.82 771.88 331.62 C 778.12 332.58 783.84 335.52 789.02 339.03 C 800.18 346.05 810.16 354.84 821.78 361.17 C 831.91 367.56 844.17 369.37 855.95 369.42 C 868.65 369.44 880.51 364.19 891.76 358.84 C 898.75 355.51 906.03 351.17 914.11 352.25 C 925.11 352.91 934.20 362.42 935.94 373.03 C 936.83 379.28 935.96 386.05 932.25 391.32 C 928.15 397.60 921.26 401.05 915.26 405.20 C 898.99 415.97 882.70 426.73 866.45 437.53 C 855.63 444.55 843.33 449.31 830.54 451.09 C 824.05 451.83 817.51 451.80 811.00 451.75 C 643.68 451.75 476.35 451.75 309.03 451.75 C 300.83 451.70 292.60 452.04 284.44 451.09 C 277.76 450.05 271.11 448.50 264.85 445.89 C 254.68 442.22 245.94 435.71 236.97 429.84 C 221.56 419.61 206.11 409.46 190.72 399.21 C 184.29 394.87 179.17 387.92 178.85 379.95 C 177.21 367.24 186.86 353.76 199.82 352.38 C 205.27 351.40 210.75 352.95 215.67 355.22 C 227.67 360.81 239.70 367.10 252.96 369.01 C 263.57 370.06 274.48 369.00 284.58 365.54 C 300.08 359.08 312.52 347.43 326.62 338.60 C 331.61 335.24 337.18 332.56 343.17 331.63 C 353.99 329.84 364.99 330.70 375.89 330.50 Z" />
<path fill="#f8312f" opacity="1.00" d=" M 284.68 578.53 C 294.24 573.37 305.38 573.16 315.98 573.24 C 478.65 573.26 641.32 573.25 803.99 573.24 C 813.04 573.27 822.39 574.18 830.47 578.62 C 842.96 585.83 853.69 595.74 866.31 602.78 C 877.91 610.27 892.29 612.69 905.90 611.56 C 917.40 610.99 927.77 605.59 938.14 601.13 C 945.06 598.04 952.20 593.93 960.08 595.01 C 970.12 596.10 978.69 604.07 981.09 613.78 C 982.72 621.23 981.73 629.62 976.73 635.64 C 972.59 640.67 966.63 643.65 961.39 647.36 C 950.94 654.33 940.49 661.29 930.04 668.26 C 917.51 676.46 905.43 685.82 891.04 690.54 C 883.57 692.75 875.89 694.59 868.04 694.24 C 660.72 694.25 453.39 694.27 246.06 694.23 C 238.53 694.52 231.18 692.63 224.00 690.56 C 208.83 685.57 196.22 675.50 182.97 666.94 C 171.00 658.97 159.05 650.98 147.07 643.02 C 143.37 640.52 139.53 637.90 137.12 634.04 C 133.03 628.22 132.42 620.58 133.90 613.78 C 135.96 604.28 144.23 596.35 153.96 595.17 C 159.22 594.19 164.59 595.45 169.39 597.65 C 178.39 601.79 187.43 605.92 196.81 609.18 C 210.96 613.40 226.51 612.57 240.29 607.34 C 256.46 599.98 269.44 587.43 284.68 578.53 Z" />
</g>
<g id="#e1d8ecff">
<path fill="#e1d8ec" opacity="1.00" d=" M 375.93 205.53 C 384.70 208.12 393.89 208.83 403.00 209.01 C 506.34 208.99 609.69 209.01 713.04 209.00 C 721.80 208.82 730.64 208.01 738.97 205.17 C 739.64 220.76 739.07 236.40 739.26 252.01 C 739.22 278.17 739.36 304.33 739.19 330.50 C 618.09 330.50 496.99 330.50 375.89 330.50 C 375.53 298.35 375.84 266.19 375.74 234.04 C 375.86 224.53 375.48 215.02 375.93 205.53 M 444.34 240.42 C 439.25 242.28 435.79 247.51 436.01 252.93 C 436.04 264.62 435.90 276.33 436.07 288.02 C 436.19 294.38 441.71 300.00 448.09 300.15 C 459.38 300.39 470.69 300.19 481.99 300.25 C 488.39 300.14 496.43 296.34 496.68 289.08 C 496.88 278.41 496.67 267.74 496.77 257.07 C 496.73 253.81 497.02 250.39 495.63 247.34 C 493.65 242.36 488.21 239.29 482.95 239.50 C 472.64 239.46 462.33 239.53 452.03 239.48 C 449.45 239.51 446.77 239.42 444.34 240.42 M 626.38 240.49 C 621.41 242.41 618.08 247.55 618.26 252.86 C 618.28 264.58 618.15 276.30 618.32 288.02 C 618.41 294.68 624.42 300.31 631.04 300.20 C 642.35 300.30 653.66 300.28 664.97 300.21 C 671.14 299.94 678.41 295.94 678.51 289.03 C 678.65 276.67 678.61 264.30 678.53 251.94 C 678.48 245.68 673.31 239.89 666.97 239.60 C 656.66 239.33 646.33 239.60 636.01 239.48 C 632.79 239.54 629.42 239.21 626.38 240.49 Z" />
<path fill="#e1d8ec" opacity="1.00" d=" M 284.44 451.09 C 292.60 452.04 300.83 451.70 309.03 451.75 C 476.35 451.75 643.68 451.75 811.00 451.75 C 817.51 451.80 824.05 451.83 830.54 451.09 C 830.41 493.60 830.57 536.11 830.47 578.62 C 822.39 574.18 813.04 573.27 803.99 573.24 C 641.32 573.25 478.65 573.26 315.98 573.24 C 305.38 573.16 294.24 573.37 284.68 578.53 C 284.21 536.06 284.63 493.57 284.44 451.09 M 354.39 482.63 C 349.39 484.25 345.39 488.89 345.38 494.28 C 345.22 506.20 345.28 518.13 345.35 530.05 C 345.24 536.57 350.80 542.42 357.32 542.66 C 368.54 542.90 379.77 542.67 391.00 542.77 C 395.17 542.91 399.78 541.96 402.59 538.61 C 405.10 536.08 406.06 532.46 406.04 528.98 C 406.08 518.65 406.02 508.32 406.06 497.99 C 406.02 494.58 406.02 490.91 404.05 487.97 C 401.63 484.39 397.39 482.03 393.05 482.04 C 382.69 481.92 372.34 482.06 361.99 481.98 C 359.45 482.01 356.84 481.87 354.39 482.63 M 536.38 482.59 C 531.44 484.08 527.39 488.58 527.26 493.87 C 526.92 504.24 527.24 514.63 527.11 525.01 C 527.10 529.23 526.81 533.97 529.63 537.47 C 532.13 541.14 536.65 542.84 540.98 542.75 C 552.28 542.71 563.58 542.86 574.87 542.68 C 581.10 542.56 587.86 537.88 587.82 531.15 C 587.98 520.78 587.81 510.41 587.89 500.04 C 587.84 496.20 588.16 492.11 586.26 488.62 C 583.83 484.36 578.88 481.80 574.02 482.01 C 564.35 481.97 554.69 482.03 545.03 481.99 C 542.14 482.03 539.18 481.79 536.38 482.59 M 718.43 482.52 C 714.56 483.73 710.98 486.58 709.71 490.54 C 708.87 493.26 708.95 496.15 708.93 498.98 C 709.02 509.33 708.85 519.69 709.01 530.04 C 708.89 536.55 714.44 542.46 720.97 542.65 C 732.68 542.87 744.40 542.74 756.11 542.71 C 762.35 542.75 769.33 538.42 769.62 531.67 C 769.85 521.13 769.62 510.59 769.72 500.05 C 769.67 496.48 769.94 492.74 768.48 489.39 C 766.25 484.74 761.07 481.80 755.95 482.01 C 745.98 481.96 736.00 482.04 726.02 481.98 C 723.48 482.01 720.90 481.87 718.43 482.52 Z" />
<path fill="#e1d8ec" opacity="1.00" d=" M 224.00 690.56 C 231.18 692.63 238.53 694.52 246.06 694.23 C 453.39 694.27 660.72 694.25 868.04 694.24 C 875.89 694.59 883.57 692.75 891.04 690.54 C 891.56 715.70 891.11 740.89 891.27 766.06 C 891.21 802.69 891.34 839.33 891.20 875.96 C 810.35 876.04 729.49 875.99 648.63 875.99 C 648.57 835.70 648.74 795.41 648.54 755.12 C 648.76 740.96 637.64 728.03 623.89 725.36 C 620.27 724.74 616.59 724.73 612.94 724.73 C 574.31 724.80 535.68 724.67 497.05 724.80 C 484.91 724.59 473.45 732.62 468.71 743.65 C 466.17 749.76 466.34 756.52 466.36 763.01 C 466.38 800.67 466.37 838.33 466.37 875.99 C 385.51 875.99 304.65 876.05 223.79 875.96 C 223.67 819.97 223.77 763.98 223.74 707.99 C 223.79 702.18 223.50 696.36 224.00 690.56 M 303.26 725.28 C 295.96 726.57 289.40 731.74 286.59 738.62 C 284.61 743.50 285.01 748.89 284.96 754.05 C 285.05 767.39 284.82 780.73 285.07 794.07 C 285.34 805.84 296.21 815.94 307.93 815.71 C 333.30 815.79 358.68 815.76 384.05 815.72 C 395.21 815.83 405.47 806.25 405.88 795.05 C 406.27 781.03 405.93 767.00 406.06 752.98 C 406.06 747.68 406.27 742.08 403.78 737.24 C 400.01 729.50 391.50 724.71 382.97 724.79 C 359.32 724.69 335.67 724.80 312.02 724.73 C 309.09 724.72 306.14 724.76 303.26 725.28 M 726.44 725.54 C 719.02 727.33 712.46 733.08 710.36 740.52 C 709.11 744.90 709.40 749.50 709.37 754.01 C 709.43 767.23 709.27 780.46 709.44 793.68 C 709.55 802.10 715.02 809.80 722.44 813.49 C 727.26 815.84 732.75 815.83 738.00 815.76 C 759.01 815.74 780.01 815.75 801.02 815.76 C 806.34 815.78 811.88 816.02 816.89 813.90 C 825.00 810.36 830.89 802.01 830.83 793.06 C 830.92 778.00 830.89 762.93 830.85 747.88 C 831.05 738.46 824.74 729.30 815.83 726.23 C 811.44 724.55 806.65 724.73 802.03 724.74 C 781.36 724.76 760.70 724.75 740.04 724.75 C 735.50 724.77 730.89 724.49 726.44 725.54 Z" />
</g>
<g id="#321b41ff">
<path fill="#321b41" opacity="1.00" d=" M 444.34 240.42 C 446.77 239.42 449.45 239.51 452.03 239.48 C 462.33 239.53 472.64 239.46 482.95 239.50 C 488.21 239.29 493.65 242.36 495.63 247.34 C 497.02 250.39 496.73 253.81 496.77 257.07 C 496.67 267.74 496.88 278.41 496.68 289.08 C 496.43 296.34 488.39 300.14 481.99 300.25 C 470.69 300.19 459.38 300.39 448.09 300.15 C 441.71 300.00 436.19 294.38 436.07 288.02 C 435.90 276.33 436.04 264.62 436.01 252.93 C 435.79 247.51 439.25 242.28 444.34 240.42 Z" />
<path fill="#321b41" opacity="1.00" d=" M 626.38 240.49 C 629.42 239.21 632.79 239.54 636.01 239.48 C 646.33 239.60 656.66 239.33 666.97 239.60 C 673.31 239.89 678.48 245.68 678.53 251.94 C 678.61 264.30 678.65 276.67 678.51 289.03 C 678.41 295.94 671.14 299.94 664.97 300.21 C 653.66 300.28 642.35 300.30 631.04 300.20 C 624.42 300.31 618.41 294.68 618.32 288.02 C 618.15 276.30 618.28 264.58 618.26 252.86 C 618.08 247.55 621.41 242.41 626.38 240.49 Z" />
<path fill="#321b41" opacity="1.00" d=" M 354.39 482.63 C 356.84 481.87 359.45 482.01 361.99 481.98 C 372.34 482.06 382.69 481.92 393.05 482.04 C 397.39 482.03 401.63 484.39 404.05 487.97 C 406.02 490.91 406.02 494.58 406.06 497.99 C 406.02 508.32 406.08 518.65 406.04 528.98 C 406.06 532.46 405.10 536.08 402.59 538.61 C 399.78 541.96 395.17 542.91 391.00 542.77 C 379.77 542.67 368.54 542.90 357.32 542.66 C 350.80 542.42 345.24 536.57 345.35 530.05 C 345.28 518.13 345.22 506.20 345.38 494.28 C 345.39 488.89 349.39 484.25 354.39 482.63 Z" />
<path fill="#321b41" opacity="1.00" d=" M 536.38 482.59 C 539.18 481.79 542.14 482.03 545.03 481.99 C 554.69 482.03 564.35 481.97 574.02 482.01 C 578.88 481.80 583.83 484.36 586.26 488.62 C 588.16 492.11 587.84 496.20 587.89 500.04 C 587.81 510.41 587.98 520.78 587.82 531.15 C 587.86 537.88 581.10 542.56 574.87 542.68 C 563.58 542.86 552.28 542.71 540.98 542.75 C 536.65 542.84 532.13 541.14 529.63 537.47 C 526.81 533.97 527.10 529.23 527.11 525.01 C 527.24 514.63 526.92 504.24 527.26 493.87 C 527.39 488.58 531.44 484.08 536.38 482.59 Z" />
<path fill="#321b41" opacity="1.00" d=" M 718.43 482.52 C 720.90 481.87 723.48 482.01 726.02 481.98 C 736.00 482.04 745.98 481.96 755.95 482.01 C 761.07 481.80 766.25 484.74 768.48 489.39 C 769.94 492.74 769.67 496.48 769.72 500.05 C 769.62 510.59 769.85 521.13 769.62 531.67 C 769.33 538.42 762.35 542.75 756.11 542.71 C 744.40 542.74 732.68 542.87 720.97 542.65 C 714.44 542.46 708.89 536.55 709.01 530.04 C 708.85 519.69 709.02 509.33 708.93 498.98 C 708.95 496.15 708.87 493.26 709.71 490.54 C 710.98 486.58 714.56 483.73 718.43 482.52 Z" />
<path fill="#321b41" opacity="1.00" d=" M 303.26 725.28 C 306.14 724.76 309.09 724.72 312.02 724.73 C 335.67 724.80 359.32 724.69 382.97 724.79 C 391.50 724.71 400.01 729.50 403.78 737.24 C 406.27 742.08 406.06 747.68 406.06 752.98 C 405.93 767.00 406.27 781.03 405.88 795.05 C 405.47 806.25 395.21 815.83 384.05 815.72 C 358.68 815.76 333.30 815.79 307.93 815.71 C 296.21 815.94 285.34 805.84 285.07 794.07 C 284.82 780.73 285.05 767.39 284.96 754.05 C 285.01 748.89 284.61 743.50 286.59 738.62 C 289.40 731.74 295.96 726.57 303.26 725.28 Z" />
<path fill="#321b41" opacity="1.00" d=" M 468.71 743.65 C 473.45 732.62 484.91 724.59 497.05 724.80 C 535.68 724.67 574.31 724.80 612.94 724.73 C 616.59 724.73 620.27 724.74 623.89 725.36 C 637.64 728.03 648.76 740.96 648.54 755.12 C 648.74 795.41 648.57 835.70 648.63 875.99 C 587.88 876.00 527.12 876.01 466.37 875.99 C 466.37 838.33 466.38 800.67 466.36 763.01 C 466.34 756.52 466.17 749.76 468.71 743.65 Z" />
<path fill="#321b41" opacity="1.00" d=" M 726.44 725.54 C 730.89 724.49 735.50 724.77 740.04 724.75 C 760.70 724.75 781.36 724.76 802.03 724.74 C 806.65 724.73 811.44 724.55 815.83 726.23 C 824.74 729.30 831.05 738.46 830.85 747.88 C 830.89 762.93 830.92 778.00 830.83 793.06 C 830.89 802.01 825.00 810.36 816.89 813.90 C 811.88 816.02 806.34 815.78 801.02 815.76 C 780.01 815.75 759.01 815.74 738.00 815.76 C 732.75 815.83 727.26 815.84 722.44 813.49 C 715.02 809.80 709.55 802.10 709.44 793.68 C 709.27 780.46 709.43 767.23 709.37 754.01 C 709.40 749.50 709.11 744.90 710.36 740.52 C 712.46 733.08 719.02 727.33 726.44 725.54 Z" />
</g>
</svg>
